<svg width="61" height="61" viewBox="0 0 61 61" fill="none" xmlns="http://www.w3.org/2000/svg">
<path d="M30.4193 29.3415C32.9264 29.3415 35.3307 28.3456 37.1035 26.5729C38.8762 24.8001 39.8721 22.3958 39.8721 19.8887C39.8721 17.3817 38.8762 14.9773 37.1035 13.2046C35.3307 11.4318 32.9264 10.4359 30.4193 10.4359C27.9123 10.4359 25.5079 11.4318 23.7352 13.2046C21.9624 14.9773 20.9665 17.3817 20.9665 19.8887C20.9665 22.3958 21.9624 24.8001 23.7352 26.5729C25.5079 28.3456 27.9123 29.3415 30.4193 29.3415ZM30.4193 33.4947C17.8512 33.4947 9.79431 40.4303 9.79431 43.8072V50.1128H51.0443V43.8072C51.0443 39.7234 43.4168 33.4947 30.4193 33.4947Z" fill="black"/>
</svg>
